<svg xmlns="http://www.w3.org/2000/svg" width="1583" height="1894" viewBox="0 0 1583 1894">
  <g id="Lock" transform="translate(-629 -2285)">
    <g id="Ellipse_5" data-name="Ellipse 5" transform="translate(761 2285)" fill="none" stroke="#fff" stroke-width="100">
      <ellipse cx="572" cy="573" rx="572" ry="573" stroke="none"/>
      <ellipse cx="572" cy="573" rx="522" ry="523" fill="none"/>
    </g>
    <g id="Ellipse_8" data-name="Ellipse 8" transform="translate(713 2717)" fill="none" stroke="#07022b" stroke-width="100">
      <circle cx="704" cy="704" r="704" stroke="none"/>
      <circle cx="704" cy="704" r="654" fill="none"/>
    </g>
    <g id="Ellipse_4" data-name="Ellipse 4" transform="translate(629 2771)" fill="#07022b" stroke="#fff" stroke-width="100">
      <circle cx="704" cy="704" r="704" stroke="none"/>
      <circle cx="704" cy="704" r="654" fill="none"/>
    </g>
    <g id="Group_1" data-name="Group 1" transform="translate(1257.261 3290.218)">
      <g id="Ellipse_7" data-name="Ellipse 7" transform="translate(-0.261 -0.218)" fill="#fff" stroke="#707070" stroke-width="1">
        <circle cx="76.5" cy="76.5" r="76.5" stroke="none"/>
        <circle cx="76.5" cy="76.5" r="76" fill="none"/>
      </g>
      <path id="Polygon_1" data-name="Polygon 1" d="M57.242,68.725c5.456-19.471,33.06-19.471,38.516,0L145.883,247.6A20,20,0,0,1,126.625,273H26.375A20,20,0,0,1,7.117,247.6Z" transform="translate(-0.261 8.782)" fill="#fff"/>
    </g>
    <path id="Polygon_2" data-name="Polygon 2" d="M573,0l573,841H0Z" transform="translate(1066 3338)" fill="#07022b"/>
  </g>
</svg>
